<mxfile host="Electron" modified="2023-10-15T18:50:48.387Z" agent="Mozilla/5.0 (Windows NT 10.0; Win64; x64) AppleWebKit/537.36 (KHTML, like Gecko) draw.io/22.0.2 Chrome/114.0.5735.289 Electron/25.8.4 Safari/537.36" etag="iTn0PmPekZyrpmAxzHcU" version="22.0.2" type="device">
  <diagram id="2E3FEsDH8j_pW6uMHD8b" name="Page-1">
    <mxGraphModel dx="1480" dy="866" grid="1" gridSize="10" guides="1" tooltips="1" connect="1" arrows="1" fold="1" page="1" pageScale="1" pageWidth="850" pageHeight="1100" math="0" shadow="0">
      <root>
        <mxCell id="0" />
        <mxCell id="1" parent="0" />
        <mxCell id="zD4fIEW4p-kJbY_XF8WA-1" value="" style="rounded=0;whiteSpace=wrap;html=1;" vertex="1" parent="1">
          <mxGeometry x="40" y="10" width="920" height="1190" as="geometry" />
        </mxCell>
        <mxCell id="0hEqhkOtpzF9vXNw3qaL-1" value="" style="shape=umlLifeline;participant=umlActor;perimeter=lifelinePerimeter;whiteSpace=wrap;html=1;container=1;collapsible=0;recursiveResize=0;verticalAlign=top;spacingTop=36;outlineConnect=0;fontSize=15;size=50;fillColor=#76608a;fontColor=#ffffff;strokeColor=#432D57;" parent="1" vertex="1">
          <mxGeometry x="66" y="70" width="30" height="1090" as="geometry" />
        </mxCell>
        <mxCell id="0hEqhkOtpzF9vXNw3qaL-13" value="" style="html=1;points=[];perimeter=orthogonalPerimeter;fillColor=#f0a30a;fontColor=#000000;strokeColor=#BD7000;" parent="0hEqhkOtpzF9vXNw3qaL-1" vertex="1">
          <mxGeometry x="10" y="70" width="10" height="500" as="geometry" />
        </mxCell>
        <mxCell id="0hEqhkOtpzF9vXNw3qaL-2" value="" style="shape=umlLifeline;participant=umlActor;perimeter=lifelinePerimeter;whiteSpace=wrap;html=1;container=1;collapsible=0;recursiveResize=0;verticalAlign=top;spacingTop=36;outlineConnect=0;fontSize=15;size=50;fillColor=#76608a;fontColor=#ffffff;strokeColor=#432D57;" parent="1" vertex="1">
          <mxGeometry x="330" y="70" width="30" height="1090" as="geometry" />
        </mxCell>
        <mxCell id="0hEqhkOtpzF9vXNw3qaL-29" value="" style="html=1;points=[];perimeter=orthogonalPerimeter;fontSize=18;fontColor=#000000;fillColor=#f0a30a;strokeColor=#BD7000;" parent="0hEqhkOtpzF9vXNw3qaL-2" vertex="1">
          <mxGeometry x="10" y="450" width="10" height="600" as="geometry" />
        </mxCell>
        <mxCell id="0hEqhkOtpzF9vXNw3qaL-3" value="&lt;font size=&quot;1&quot;&gt;&lt;b style=&quot;font-size: 20px&quot;&gt;System&lt;/b&gt;&lt;/font&gt;" style="shape=umlLifeline;perimeter=lifelinePerimeter;whiteSpace=wrap;html=1;container=1;collapsible=0;recursiveResize=0;outlineConnect=0;fillColor=#76608a;fontColor=#ffffff;strokeColor=#432D57;" parent="1" vertex="1">
          <mxGeometry x="570" y="80" width="100" height="1080" as="geometry" />
        </mxCell>
        <mxCell id="0hEqhkOtpzF9vXNw3qaL-17" value="" style="html=1;points=[];perimeter=orthogonalPerimeter;fillColor=#f0a30a;fontColor=#000000;strokeColor=#BD7000;" parent="0hEqhkOtpzF9vXNw3qaL-3" vertex="1">
          <mxGeometry x="45" y="60" width="10" height="980" as="geometry" />
        </mxCell>
        <mxCell id="0hEqhkOtpzF9vXNw3qaL-4" value="&lt;font style=&quot;font-size: 20px&quot;&gt;&lt;b&gt;Database&lt;/b&gt;&lt;/font&gt;" style="shape=umlLifeline;perimeter=lifelinePerimeter;whiteSpace=wrap;html=1;container=1;collapsible=0;recursiveResize=0;outlineConnect=0;fillColor=#76608a;fontColor=#ffffff;strokeColor=#432D57;" parent="1" vertex="1">
          <mxGeometry x="820" y="80" width="100" height="1080" as="geometry" />
        </mxCell>
        <mxCell id="0hEqhkOtpzF9vXNw3qaL-30" value="" style="html=1;points=[];perimeter=orthogonalPerimeter;fontSize=18;fontColor=#000000;fillColor=#f0a30a;strokeColor=#BD7000;" parent="0hEqhkOtpzF9vXNw3qaL-4" vertex="1">
          <mxGeometry x="45" y="572" width="10" height="418" as="geometry" />
        </mxCell>
        <mxCell id="0hEqhkOtpzF9vXNw3qaL-6" value="&lt;b style=&quot;font-size: 20px&quot;&gt;User/&lt;br&gt;Customer&lt;/b&gt;" style="text;html=1;align=center;verticalAlign=middle;resizable=0;points=[];autosize=1;fontSize=18;" parent="1" vertex="1">
          <mxGeometry x="40" y="20" width="110" height="50" as="geometry" />
        </mxCell>
        <mxCell id="0hEqhkOtpzF9vXNw3qaL-7" value="&lt;b&gt;&lt;font style=&quot;font-size: 20px&quot;&gt;Admin&lt;/font&gt;&lt;/b&gt;" style="text;html=1;align=center;verticalAlign=middle;resizable=0;points=[];autosize=1;fontSize=18;" parent="1" vertex="1">
          <mxGeometry x="305" y="40" width="80" height="30" as="geometry" />
        </mxCell>
        <mxCell id="0hEqhkOtpzF9vXNw3qaL-11" value="" style="endArrow=classic;html=1;exitX=0.972;exitY=0.118;exitDx=0;exitDy=0;exitPerimeter=0;" parent="1" source="0hEqhkOtpzF9vXNw3qaL-13" edge="1">
          <mxGeometry width="50" height="50" relative="1" as="geometry">
            <mxPoint x="120" y="199" as="sourcePoint" />
            <mxPoint x="614" y="199" as="targetPoint" />
          </mxGeometry>
        </mxCell>
        <mxCell id="0hEqhkOtpzF9vXNw3qaL-14" value="&lt;font style=&quot;font-size: 18px&quot;&gt;Request for Login&lt;/font&gt;" style="text;html=1;align=center;verticalAlign=middle;resizable=0;points=[];autosize=1;fontSize=18;fontColor=none;" parent="1" vertex="1">
          <mxGeometry x="150" y="170" width="160" height="30" as="geometry" />
        </mxCell>
        <mxCell id="0hEqhkOtpzF9vXNw3qaL-15" value="&lt;font style=&quot;font-size: 18px&quot;&gt;Access System&lt;/font&gt;" style="text;html=1;align=center;verticalAlign=middle;resizable=0;points=[];autosize=1;fontSize=18;fontColor=none;" parent="1" vertex="1">
          <mxGeometry x="425" y="210" width="140" height="30" as="geometry" />
        </mxCell>
        <mxCell id="0hEqhkOtpzF9vXNw3qaL-16" value="return" style="verticalAlign=bottom;endArrow=open;dashed=1;endSize=8;labelBackgroundColor=none;fontSize=18;noLabel=1;fontColor=none;entryX=0.935;entryY=0.201;entryDx=0;entryDy=0;entryPerimeter=0;" parent="1" source="0hEqhkOtpzF9vXNw3qaL-17" target="0hEqhkOtpzF9vXNw3qaL-13" edge="1">
          <mxGeometry relative="1" as="geometry">
            <mxPoint x="520" y="241" as="sourcePoint" />
            <mxPoint x="140" y="241" as="targetPoint" />
          </mxGeometry>
        </mxCell>
        <mxCell id="0hEqhkOtpzF9vXNw3qaL-18" value="" style="endArrow=classic;html=1;exitX=1.218;exitY=0.276;exitDx=0;exitDy=0;exitPerimeter=0;entryX=-0.133;entryY=0.117;entryDx=0;entryDy=0;entryPerimeter=0;" parent="1" edge="1">
          <mxGeometry width="50" height="50" relative="1" as="geometry">
            <mxPoint x="88.17999999999995" y="279" as="sourcePoint" />
            <mxPoint x="613.6700000000001" y="277.89" as="targetPoint" />
          </mxGeometry>
        </mxCell>
        <mxCell id="0hEqhkOtpzF9vXNw3qaL-19" value="Search Product" style="text;html=1;align=center;verticalAlign=middle;resizable=0;points=[];autosize=1;fontSize=18;fontColor=none;" parent="1" vertex="1">
          <mxGeometry x="155" y="250" width="140" height="30" as="geometry" />
        </mxCell>
        <mxCell id="0hEqhkOtpzF9vXNw3qaL-20" value="return" style="verticalAlign=bottom;endArrow=open;dashed=1;endSize=8;labelBackgroundColor=none;fontSize=18;noLabel=1;fontColor=none;entryX=1.1;entryY=0.36;entryDx=0;entryDy=0;entryPerimeter=0;" parent="1" source="0hEqhkOtpzF9vXNw3qaL-17" target="0hEqhkOtpzF9vXNw3qaL-13" edge="1">
          <mxGeometry relative="1" as="geometry">
            <mxPoint x="610" y="320" as="sourcePoint" />
            <mxPoint x="90" y="320" as="targetPoint" />
            <Array as="points">
              <mxPoint x="360" y="320" />
            </Array>
          </mxGeometry>
        </mxCell>
        <mxCell id="0hEqhkOtpzF9vXNw3qaL-21" value="Display Product" style="text;html=1;align=center;verticalAlign=middle;resizable=0;points=[];autosize=1;fontSize=18;fontColor=none;" parent="1" vertex="1">
          <mxGeometry x="425" y="290" width="140" height="30" as="geometry" />
        </mxCell>
        <mxCell id="0hEqhkOtpzF9vXNw3qaL-22" value="" style="endArrow=classic;html=1;exitX=1.1;exitY=0.434;exitDx=0;exitDy=0;exitPerimeter=0;" parent="1" source="0hEqhkOtpzF9vXNw3qaL-13" target="0hEqhkOtpzF9vXNw3qaL-17" edge="1">
          <mxGeometry width="50" height="50" relative="1" as="geometry">
            <mxPoint x="98.17999999999995" y="289" as="sourcePoint" />
            <mxPoint x="600" y="357" as="targetPoint" />
          </mxGeometry>
        </mxCell>
        <mxCell id="0hEqhkOtpzF9vXNw3qaL-23" value="Select Product" style="text;html=1;align=center;verticalAlign=middle;resizable=0;points=[];autosize=1;fontSize=18;fontColor=none;" parent="1" vertex="1">
          <mxGeometry x="160" y="330" width="130" height="30" as="geometry" />
        </mxCell>
        <mxCell id="0hEqhkOtpzF9vXNw3qaL-24" value="return" style="verticalAlign=bottom;endArrow=open;dashed=1;endSize=8;labelBackgroundColor=none;fontSize=18;noLabel=1;fontColor=none;entryX=0.967;entryY=0.518;entryDx=0;entryDy=0;entryPerimeter=0;exitX=-0.137;exitY=0.265;exitDx=0;exitDy=0;exitPerimeter=0;" parent="1" source="0hEqhkOtpzF9vXNw3qaL-17" target="0hEqhkOtpzF9vXNw3qaL-13" edge="1">
          <mxGeometry relative="1" as="geometry">
            <mxPoint x="607" y="399" as="sourcePoint" />
            <mxPoint x="96" y="400" as="targetPoint" />
            <Array as="points">
              <mxPoint x="369" y="400" />
            </Array>
          </mxGeometry>
        </mxCell>
        <mxCell id="0hEqhkOtpzF9vXNw3qaL-26" value="Show Product Description" style="text;html=1;align=center;verticalAlign=middle;resizable=0;points=[];autosize=1;fontSize=18;fontColor=none;" parent="1" vertex="1">
          <mxGeometry x="385" y="370" width="220" height="30" as="geometry" />
        </mxCell>
        <mxCell id="0hEqhkOtpzF9vXNw3qaL-27" value="" style="endArrow=classic;html=1;exitX=1.433;exitY=0.598;exitDx=0;exitDy=0;exitPerimeter=0;" parent="1" target="0hEqhkOtpzF9vXNw3qaL-17" edge="1">
          <mxGeometry width="50" height="50" relative="1" as="geometry">
            <mxPoint x="90.32999999999993" y="439.0000000000001" as="sourcePoint" />
            <mxPoint x="600" y="437" as="targetPoint" />
          </mxGeometry>
        </mxCell>
        <mxCell id="0hEqhkOtpzF9vXNw3qaL-28" value="View Product Description" style="text;html=1;align=center;verticalAlign=middle;resizable=0;points=[];autosize=1;fontSize=18;fontColor=none;" parent="1" vertex="1">
          <mxGeometry x="110" y="410" width="220" height="30" as="geometry" />
        </mxCell>
        <mxCell id="0hEqhkOtpzF9vXNw3qaL-31" value="&lt;font style=&quot;font-size: 18px&quot;&gt;Request for Login&lt;/font&gt;" style="text;html=1;align=center;verticalAlign=middle;resizable=0;points=[];autosize=1;fontSize=18;fontColor=none;" parent="1" vertex="1">
          <mxGeometry x="405" y="530" width="160" height="30" as="geometry" />
        </mxCell>
        <mxCell id="0hEqhkOtpzF9vXNw3qaL-32" value="dispatch" style="verticalAlign=top;endArrow=block;fontSize=18;textDirection=rtl;horizontal=1;labelPosition=right;verticalLabelPosition=bottom;align=left;noLabel=1;fontColor=none;labelBackgroundColor=none;exitX=1;exitY=0.157;exitDx=0;exitDy=0;exitPerimeter=0;entryX=-0.036;entryY=0.43;entryDx=0;entryDy=0;entryPerimeter=0;" parent="1" target="0hEqhkOtpzF9vXNw3qaL-17" edge="1">
          <mxGeometry width="80" relative="1" as="geometry">
            <mxPoint x="350" y="561.0799999999999" as="sourcePoint" />
            <mxPoint x="610" y="561" as="targetPoint" />
          </mxGeometry>
        </mxCell>
        <mxCell id="0hEqhkOtpzF9vXNw3qaL-33" value="&lt;font style=&quot;font-size: 18px&quot;&gt;Access System&lt;/font&gt;" style="text;html=1;align=center;verticalAlign=middle;resizable=0;points=[];autosize=1;fontSize=18;fontColor=none;" parent="1" vertex="1">
          <mxGeometry x="415" y="587" width="140" height="30" as="geometry" />
        </mxCell>
        <mxCell id="0hEqhkOtpzF9vXNw3qaL-34" value="return" style="verticalAlign=bottom;endArrow=open;dashed=1;endSize=8;labelBackgroundColor=none;fontSize=18;noLabel=1;fontColor=none;entryX=1.221;entryY=0.182;entryDx=0;entryDy=0;entryPerimeter=0;exitX=0.148;exitY=0.499;exitDx=0;exitDy=0;exitPerimeter=0;" parent="1" edge="1">
          <mxGeometry relative="1" as="geometry">
            <mxPoint x="616.48" y="615.0200000000001" as="sourcePoint" />
            <mxPoint x="352.21000000000004" y="615.2" as="targetPoint" />
          </mxGeometry>
        </mxCell>
        <mxCell id="0hEqhkOtpzF9vXNw3qaL-35" value="View All Product" style="text;html=1;align=center;verticalAlign=middle;resizable=0;points=[];autosize=1;fontSize=18;fontColor=none;" parent="1" vertex="1">
          <mxGeometry x="410" y="640" width="150" height="30" as="geometry" />
        </mxCell>
        <mxCell id="0hEqhkOtpzF9vXNw3qaL-36" value="dispatch" style="verticalAlign=top;endArrow=block;fontSize=18;textDirection=rtl;horizontal=1;labelPosition=right;verticalLabelPosition=bottom;align=left;noLabel=1;fontColor=none;labelBackgroundColor=none;exitX=1.064;exitY=0.334;exitDx=0;exitDy=0;exitPerimeter=0;entryX=0.06;entryY=0.592;entryDx=0;entryDy=0;entryPerimeter=0;" parent="1" source="0hEqhkOtpzF9vXNw3qaL-29" target="0hEqhkOtpzF9vXNw3qaL-17" edge="1">
          <mxGeometry width="80" relative="1" as="geometry">
            <mxPoint x="370" y="710" as="sourcePoint" />
            <mxPoint x="580" y="710" as="targetPoint" />
          </mxGeometry>
        </mxCell>
        <mxCell id="0hEqhkOtpzF9vXNw3qaL-37" value="Manage&amp;nbsp; Product" style="text;html=1;align=center;verticalAlign=middle;resizable=0;points=[];autosize=1;fontSize=18;fontColor=none;" parent="1" vertex="1">
          <mxGeometry x="410" y="690" width="150" height="30" as="geometry" />
        </mxCell>
        <mxCell id="0hEqhkOtpzF9vXNw3qaL-38" value="dispatch" style="verticalAlign=top;endArrow=block;fontSize=18;textDirection=rtl;horizontal=1;labelPosition=right;verticalLabelPosition=bottom;align=left;noLabel=1;fontColor=none;labelBackgroundColor=none;exitX=1;exitY=0.267;exitDx=0;exitDy=0;exitPerimeter=0;entryX=0.028;entryY=0.552;entryDx=0;entryDy=0;entryPerimeter=0;" parent="1" edge="1">
          <mxGeometry width="80" relative="1" as="geometry">
            <mxPoint x="350" y="669.2" as="sourcePoint" />
            <mxPoint x="615.28" y="669.96" as="targetPoint" />
          </mxGeometry>
        </mxCell>
        <mxCell id="0hEqhkOtpzF9vXNw3qaL-39" value="dispatch" style="verticalAlign=top;endArrow=block;fontSize=18;textDirection=rtl;horizontal=1;labelPosition=right;verticalLabelPosition=bottom;align=left;noLabel=1;fontColor=none;labelBackgroundColor=none;exitX=1;exitY=0.408;exitDx=0;exitDy=0;exitPerimeter=0;entryX=-0.068;entryY=0.637;entryDx=0;entryDy=0;entryPerimeter=0;" parent="1" edge="1">
          <mxGeometry width="80" relative="1" as="geometry">
            <mxPoint x="350" y="769.8" as="sourcePoint" />
            <mxPoint x="614.3200000000002" y="769.26" as="targetPoint" />
          </mxGeometry>
        </mxCell>
        <mxCell id="0hEqhkOtpzF9vXNw3qaL-40" value="Add Product Categories" style="text;html=1;align=center;verticalAlign=middle;resizable=0;points=[];autosize=1;fontSize=18;fontColor=none;" parent="1" vertex="1">
          <mxGeometry x="385" y="740" width="210" height="30" as="geometry" />
        </mxCell>
        <mxCell id="0hEqhkOtpzF9vXNw3qaL-41" value="dispatch" style="verticalAlign=top;endArrow=block;fontSize=18;textDirection=rtl;horizontal=1;labelPosition=right;verticalLabelPosition=bottom;align=left;noLabel=1;fontColor=none;labelBackgroundColor=none;exitX=1.031;exitY=0.645;exitDx=0;exitDy=0;exitPerimeter=0;entryX=0.044;entryY=0.283;entryDx=0;entryDy=0;entryPerimeter=0;" parent="1" target="0hEqhkOtpzF9vXNw3qaL-30" edge="1">
          <mxGeometry width="80" relative="1" as="geometry">
            <mxPoint x="625.31" y="770.1000000000001" as="sourcePoint" />
            <mxPoint x="870" y="770" as="targetPoint" />
          </mxGeometry>
        </mxCell>
        <mxCell id="0hEqhkOtpzF9vXNw3qaL-42" value="Store Categories" style="text;html=1;align=center;verticalAlign=middle;resizable=0;points=[];autosize=1;fontSize=18;fontColor=none;" parent="1" vertex="1">
          <mxGeometry x="675" y="740" width="150" height="30" as="geometry" />
        </mxCell>
        <mxCell id="0hEqhkOtpzF9vXNw3qaL-43" value="return" style="verticalAlign=bottom;endArrow=open;dashed=1;endSize=8;labelBackgroundColor=none;fontSize=18;noLabel=1;fontColor=none;exitX=-0.132;exitY=0.704;exitDx=0;exitDy=0;exitPerimeter=0;entryX=0.968;entryY=0.518;entryDx=0;entryDy=0;entryPerimeter=0;" parent="1" source="0hEqhkOtpzF9vXNw3qaL-17" target="0hEqhkOtpzF9vXNw3qaL-29" edge="1">
          <mxGeometry relative="1" as="geometry">
            <mxPoint x="600" y="830" as="sourcePoint" />
            <mxPoint x="380" y="830" as="targetPoint" />
          </mxGeometry>
        </mxCell>
        <mxCell id="0hEqhkOtpzF9vXNw3qaL-44" value="Display Added Categories" style="text;html=1;align=center;verticalAlign=middle;resizable=0;points=[];autosize=1;fontSize=18;fontColor=none;" parent="1" vertex="1">
          <mxGeometry x="370" y="800" width="220" height="30" as="geometry" />
        </mxCell>
        <mxCell id="0hEqhkOtpzF9vXNw3qaL-45" value="Edit / Update Product" style="text;html=1;align=center;verticalAlign=middle;resizable=0;points=[];autosize=1;fontSize=18;fontColor=none;" parent="1" vertex="1">
          <mxGeometry x="390" y="857" width="190" height="30" as="geometry" />
        </mxCell>
        <mxCell id="0hEqhkOtpzF9vXNw3qaL-46" value="dispatch" style="verticalAlign=top;endArrow=block;fontSize=18;textDirection=rtl;horizontal=1;labelPosition=right;verticalLabelPosition=bottom;align=left;noLabel=1;fontColor=none;labelBackgroundColor=none;exitX=1.288;exitY=0.61;exitDx=0;exitDy=0;exitPerimeter=0;entryX=-0.004;entryY=0.761;entryDx=0;entryDy=0;entryPerimeter=0;" parent="1" source="0hEqhkOtpzF9vXNw3qaL-29" target="0hEqhkOtpzF9vXNw3qaL-17" edge="1">
          <mxGeometry width="80" relative="1" as="geometry">
            <mxPoint x="430" y="960" as="sourcePoint" />
            <mxPoint x="610" y="885" as="targetPoint" />
          </mxGeometry>
        </mxCell>
        <mxCell id="0hEqhkOtpzF9vXNw3qaL-47" value="Display Updated Product" style="text;html=1;align=center;verticalAlign=middle;resizable=0;points=[];autosize=1;fontSize=18;fontColor=none;" parent="1" vertex="1">
          <mxGeometry x="380" y="910" width="210" height="30" as="geometry" />
        </mxCell>
        <mxCell id="0hEqhkOtpzF9vXNw3qaL-48" value="return" style="verticalAlign=bottom;endArrow=open;dashed=1;endSize=8;labelBackgroundColor=none;fontSize=18;noLabel=1;fontColor=none;entryX=1.16;entryY=0.701;entryDx=0;entryDy=0;entryPerimeter=0;exitX=-0.068;exitY=0.817;exitDx=0;exitDy=0;exitPerimeter=0;" parent="1" source="0hEqhkOtpzF9vXNw3qaL-17" target="0hEqhkOtpzF9vXNw3qaL-29" edge="1">
          <mxGeometry relative="1" as="geometry">
            <mxPoint x="600" y="941" as="sourcePoint" />
            <mxPoint x="440" y="990" as="targetPoint" />
          </mxGeometry>
        </mxCell>
        <mxCell id="0hEqhkOtpzF9vXNw3qaL-49" value="dispatch" style="verticalAlign=top;endArrow=block;fontSize=18;textDirection=rtl;horizontal=1;labelPosition=right;verticalLabelPosition=bottom;align=left;noLabel=1;fontColor=none;labelBackgroundColor=none;entryX=0.012;entryY=0.56;entryDx=0;entryDy=0;entryPerimeter=0;" parent="1" target="0hEqhkOtpzF9vXNw3qaL-30" edge="1">
          <mxGeometry width="80" relative="1" as="geometry">
            <mxPoint x="628" y="887" as="sourcePoint" />
            <mxPoint x="870" y="886" as="targetPoint" />
          </mxGeometry>
        </mxCell>
        <mxCell id="0hEqhkOtpzF9vXNw3qaL-50" value="Store Updated Product" style="text;html=1;align=center;verticalAlign=middle;resizable=0;points=[];autosize=1;fontSize=18;fontColor=none;" parent="1" vertex="1">
          <mxGeometry x="650" y="858" width="200" height="30" as="geometry" />
        </mxCell>
        <mxCell id="0hEqhkOtpzF9vXNw3qaL-51" value="Remove / Delete Product" style="text;html=1;align=center;verticalAlign=middle;resizable=0;points=[];autosize=1;fontSize=18;fontColor=none;" parent="1" vertex="1">
          <mxGeometry x="380" y="970" width="220" height="30" as="geometry" />
        </mxCell>
        <mxCell id="0hEqhkOtpzF9vXNw3qaL-52" value="dispatch" style="verticalAlign=top;endArrow=block;fontSize=18;textDirection=rtl;horizontal=1;labelPosition=right;verticalLabelPosition=bottom;align=left;noLabel=1;fontColor=none;labelBackgroundColor=none;exitX=1;exitY=0.8;exitDx=0;exitDy=0;exitPerimeter=0;entryX=-0.004;entryY=0.877;entryDx=0;entryDy=0;entryPerimeter=0;" parent="1" source="0hEqhkOtpzF9vXNw3qaL-29" target="0hEqhkOtpzF9vXNw3qaL-17" edge="1">
          <mxGeometry width="80" relative="1" as="geometry">
            <mxPoint x="420" y="1020" as="sourcePoint" />
            <mxPoint x="580" y="1000" as="targetPoint" />
          </mxGeometry>
        </mxCell>
        <mxCell id="0hEqhkOtpzF9vXNw3qaL-55" value="dispatch" style="verticalAlign=top;endArrow=block;fontSize=18;textDirection=rtl;horizontal=1;labelPosition=right;verticalLabelPosition=bottom;align=left;noLabel=1;fontColor=none;labelBackgroundColor=none;exitX=1.052;exitY=0.878;exitDx=0;exitDy=0;exitPerimeter=0;entryX=0.14;entryY=0.833;entryDx=0;entryDy=0;entryPerimeter=0;" parent="1" source="0hEqhkOtpzF9vXNw3qaL-17" target="0hEqhkOtpzF9vXNw3qaL-30" edge="1">
          <mxGeometry width="80" relative="1" as="geometry">
            <mxPoint x="670" y="1000" as="sourcePoint" />
            <mxPoint x="870" y="1000" as="targetPoint" />
          </mxGeometry>
        </mxCell>
        <mxCell id="0hEqhkOtpzF9vXNw3qaL-57" value="Remove From Database" style="text;html=1;align=center;verticalAlign=middle;resizable=0;points=[];autosize=1;fontSize=18;fontColor=none;" parent="1" vertex="1">
          <mxGeometry x="645" y="970" width="210" height="30" as="geometry" />
        </mxCell>
        <mxCell id="0hEqhkOtpzF9vXNw3qaL-58" value="" style="shape=umlDestroy;whiteSpace=wrap;html=1;strokeWidth=3;fontSize=18;fontColor=none;" parent="1" vertex="1">
          <mxGeometry x="66" y="1150" width="30" height="30" as="geometry" />
        </mxCell>
        <mxCell id="0hEqhkOtpzF9vXNw3qaL-60" value="" style="shape=umlDestroy;whiteSpace=wrap;html=1;strokeWidth=3;fontSize=18;fontColor=none;" parent="1" vertex="1">
          <mxGeometry x="605" y="1150" width="30" height="30" as="geometry" />
        </mxCell>
        <mxCell id="0hEqhkOtpzF9vXNw3qaL-61" value="" style="shape=umlDestroy;whiteSpace=wrap;html=1;strokeWidth=3;fontSize=18;fontColor=none;" parent="1" vertex="1">
          <mxGeometry x="855" y="1150" width="30" height="30" as="geometry" />
        </mxCell>
        <mxCell id="0hEqhkOtpzF9vXNw3qaL-62" value="return" style="verticalAlign=bottom;endArrow=open;dashed=1;endSize=8;labelBackgroundColor=none;fontSize=18;noLabel=1;fontColor=none;entryX=1.197;entryY=0.704;entryDx=0;entryDy=0;entryPerimeter=0;exitX=-0.052;exitY=0.426;exitDx=0;exitDy=0;exitPerimeter=0;" parent="1" source="0hEqhkOtpzF9vXNw3qaL-30" target="0hEqhkOtpzF9vXNw3qaL-17" edge="1">
          <mxGeometry relative="1" as="geometry">
            <mxPoint x="870" y="830" as="sourcePoint" />
            <mxPoint x="650" y="830" as="targetPoint" />
          </mxGeometry>
        </mxCell>
        <mxCell id="0hEqhkOtpzF9vXNw3qaL-63" value="return" style="verticalAlign=bottom;endArrow=open;dashed=1;endSize=8;labelBackgroundColor=none;fontSize=18;noLabel=1;fontColor=none;entryX=0.988;entryY=0.818;entryDx=0;entryDy=0;entryPerimeter=0;exitX=-0.116;exitY=0.689;exitDx=0;exitDy=0;exitPerimeter=0;" parent="1" source="0hEqhkOtpzF9vXNw3qaL-30" target="0hEqhkOtpzF9vXNw3qaL-17" edge="1">
          <mxGeometry relative="1" as="geometry">
            <mxPoint x="860" y="942" as="sourcePoint" />
            <mxPoint x="730" y="680" as="targetPoint" />
          </mxGeometry>
        </mxCell>
        <mxCell id="0hEqhkOtpzF9vXNw3qaL-64" value="return" style="verticalAlign=bottom;endArrow=open;dashed=1;endSize=8;labelBackgroundColor=none;fontSize=18;noLabel=1;fontColor=none;entryX=1.18;entryY=0.929;entryDx=0;entryDy=0;entryPerimeter=0;exitX=0.012;exitY=0.953;exitDx=0;exitDy=0;exitPerimeter=0;" parent="1" source="0hEqhkOtpzF9vXNw3qaL-30" target="0hEqhkOtpzF9vXNw3qaL-17" edge="1">
          <mxGeometry relative="1" as="geometry">
            <mxPoint x="870" y="1050" as="sourcePoint" />
            <mxPoint x="634.8799999999999" y="951.6399999999999" as="targetPoint" />
          </mxGeometry>
        </mxCell>
        <mxCell id="0hEqhkOtpzF9vXNw3qaL-66" value="&amp;nbsp;Added Categories" style="text;html=1;align=center;verticalAlign=middle;resizable=0;points=[];autosize=1;fontSize=18;fontColor=none;" parent="1" vertex="1">
          <mxGeometry x="670" y="800" width="160" height="30" as="geometry" />
        </mxCell>
        <mxCell id="0hEqhkOtpzF9vXNw3qaL-67" value="&amp;nbsp;Product Updated&amp;nbsp;" style="text;html=1;align=center;verticalAlign=middle;resizable=0;points=[];autosize=1;fontSize=18;fontColor=none;" parent="1" vertex="1">
          <mxGeometry x="670" y="910" width="160" height="30" as="geometry" />
        </mxCell>
        <mxCell id="0hEqhkOtpzF9vXNw3qaL-68" value="&amp;nbsp;Product Removed" style="text;html=1;align=center;verticalAlign=middle;resizable=0;points=[];autosize=1;fontSize=18;fontColor=none;" parent="1" vertex="1">
          <mxGeometry x="670" y="1022" width="160" height="30" as="geometry" />
        </mxCell>
        <mxCell id="0hEqhkOtpzF9vXNw3qaL-59" value="" style="shape=umlDestroy;whiteSpace=wrap;html=1;strokeWidth=3;fontSize=18;fontColor=none;" parent="1" vertex="1">
          <mxGeometry x="330" y="1150" width="30" height="30" as="geometry" />
        </mxCell>
      </root>
    </mxGraphModel>
  </diagram>
</mxfile>
